<svg xmlns="http://www.w3.org/2000/svg" data-name="Layer 1" width="24" height="24"><rect id="backgroundrect" width="100%" height="100%" x="0" y="0" fill="none" stroke="none" data-darkreader-inline-stroke="" style="--darkreader-inline-stroke: none;" class=""/><g class="currentLayer" style=""><title>Layer 1</title><path d="m12,0 C5.383,0 0,5.383 0,12 s5.383,12 12,12 s12,-5.383 12,-12 S18.617,0 12,0 zm0,21 c-4.963,0 -9,-4.038 -9,-9 S7.037,3 12,3 s9,4.038 9,9 s-4.037,9 -9,9 zm3.914,-7.999 l-5.202,2.85 c-0.7660000000000001,0.43100000000000005 -1.7120000000000002,-0.12300000000000001 -1.7120000000000002,-1.001 v-5.699 c0,-0.8790000000000001 0.9460000000000001,-1.432 1.7120000000000002,-1.001 l5.202,2.85 c0.781,0.43900000000000006 0.781,1.5630000000000002 0,2.002 z" id="svg_1" class="" fill="#ffffff" fill-opacity="1" data-darkreader-inline-fill="" style="--darkreader-inline-fill: #181a1b;"/></g></svg>